<svg width="232" height="230" viewBox="0 0 232 230" fill="none" xmlns="http://www.w3.org/2000/svg">
<path d="M81.2273 11.4658H60.7727H60.5C59.3954 11.4658 58.5 12.3615 58.5 13.4661C58.5 13.6459 58.5 13.7733 58.5 13.8058V34.2603V34.4658C58.5 35.5704 59.3957 36.4658 60.5003 36.4658C60.6438 36.4658 60.744 36.4658 60.7727 36.4658H81.2273C81.256 36.4658 81.3562 36.4658 81.4997 36.4658C82.6043 36.4658 83.5 35.5699 83.5 34.4653C83.5 34.3585 83.5 34.2846 83.5 34.2603V13.8058C83.5 13.7733 83.5 13.6459 83.5 13.4661C83.5 12.3615 82.6043 11.4658 81.4997 11.4658C81.3562 11.4658 81.256 11.4658 81.2273 11.4658ZM73.2727 34.2603H60.7727V25.1694H73.2727V34.2603ZM73.2727 22.8967H60.7727V13.8058L73.2727 13.8058V22.8967ZM81.2273 34.2603H75.5455V13.8058H81.2273V34.2603Z" fill="#CDCDCD"/>
<path d="M101.773 20.7385C101.705 20.1628 101.428 19.7158 100.943 19.3976C100.458 19.0795 99.8636 18.9204 99.1591 18.9204C98.6439 18.9204 98.1932 19.0037 97.8068 19.1704C97.4242 19.337 97.125 19.5662 96.9091 19.8579C96.697 20.1495 96.5909 20.481 96.5909 20.8522C96.5909 21.1628 96.6648 21.4298 96.8125 21.6533C96.964 21.873 97.1572 22.0567 97.392 22.2045C97.6269 22.3484 97.8731 22.4677 98.1307 22.5624C98.3883 22.6533 98.625 22.7272 98.8409 22.784L100.023 23.1022C100.326 23.1817 100.663 23.2916 101.034 23.4317C101.409 23.5719 101.767 23.7632 102.108 24.0056C102.453 24.2442 102.737 24.551 102.96 24.926C103.184 25.301 103.295 25.7613 103.295 26.3067C103.295 26.9355 103.131 27.5037 102.801 28.0113C102.475 28.5189 101.998 28.9223 101.369 29.2215C100.744 29.5207 99.9848 29.6704 99.0909 29.6704C98.2576 29.6704 97.536 29.5359 96.9261 29.267C96.3201 28.998 95.8428 28.623 95.4943 28.142C95.1496 27.6609 94.9545 27.1022 94.9091 26.4658H96.3636C96.4015 26.9052 96.5492 27.2689 96.8068 27.5567C97.0682 27.8408 97.3977 28.0529 97.7955 28.1931C98.197 28.3295 98.6288 28.3976 99.0909 28.3976C99.6288 28.3976 100.112 28.3105 100.54 28.1363C100.968 27.9582 101.307 27.712 101.557 27.3976C101.807 27.0795 101.932 26.7082 101.932 26.284C101.932 25.8976 101.824 25.5832 101.608 25.3408C101.392 25.0984 101.108 24.9014 100.756 24.7499C100.403 24.5984 100.023 24.4658 99.6136 24.3522L98.1818 23.9431C97.2727 23.6817 96.553 23.3086 96.0227 22.8238C95.4924 22.3389 95.2273 21.7045 95.2273 20.9204C95.2273 20.2689 95.4034 19.7007 95.7557 19.2158C96.1117 18.7272 96.589 18.3484 97.1875 18.0795C97.7898 17.8067 98.4621 17.6704 99.2045 17.6704C99.9545 17.6704 100.621 17.8048 101.205 18.0738C101.788 18.3389 102.25 18.7026 102.591 19.1647C102.936 19.6268 103.117 20.1514 103.136 20.7385H101.773ZM110.93 25.8976V20.7385H112.271V29.4658H110.93V27.9885H110.839C110.635 28.4317 110.317 28.8086 109.885 29.1192C109.453 29.426 108.908 29.5795 108.249 29.5795C107.703 29.5795 107.218 29.4601 106.794 29.2215C106.37 28.9791 106.036 28.6154 105.794 28.1306C105.552 27.642 105.43 27.0264 105.43 26.284V20.7385H106.771V26.1931C106.771 26.8295 106.949 27.337 107.305 27.7158C107.665 28.0946 108.124 28.284 108.68 28.284C109.014 28.284 109.353 28.1988 109.697 28.0283C110.046 27.8579 110.338 27.5965 110.572 27.2442C110.811 26.892 110.93 26.4431 110.93 25.8976ZM114.727 29.4658V20.7385H116.023V22.1022H116.136C116.318 21.6363 116.612 21.2745 117.017 21.017C117.422 20.7556 117.909 20.6249 118.477 20.6249C119.053 20.6249 119.532 20.7556 119.915 21.017C120.301 21.2745 120.602 21.6363 120.818 22.1022H120.909C121.133 21.6514 121.468 21.2935 121.915 21.0283C122.362 20.7594 122.898 20.6249 123.523 20.6249C124.303 20.6249 124.941 20.8692 125.438 21.3579C125.934 21.8427 126.182 22.5984 126.182 23.6249V29.4658H124.841V23.6249C124.841 22.981 124.665 22.5207 124.312 22.2442C123.96 21.9677 123.545 21.8295 123.068 21.8295C122.455 21.8295 121.979 22.0151 121.642 22.3863C121.305 22.7537 121.136 23.2196 121.136 23.784V29.4658H119.773V23.4885C119.773 22.9923 119.612 22.5927 119.29 22.2897C118.968 21.9829 118.553 21.8295 118.045 21.8295C117.697 21.8295 117.371 21.9223 117.068 22.1079C116.769 22.2935 116.527 22.551 116.341 22.8806C116.159 23.2064 116.068 23.5832 116.068 24.0113V29.4658H114.727ZM128.634 29.4658V20.7385H129.929V22.1022H130.043C130.224 21.6363 130.518 21.2745 130.923 21.017C131.329 20.7556 131.815 20.6249 132.384 20.6249C132.959 20.6249 133.438 20.7556 133.821 21.017C134.207 21.2745 134.509 21.6363 134.724 22.1022H134.815C135.039 21.6514 135.374 21.2935 135.821 21.0283C136.268 20.7594 136.804 20.6249 137.429 20.6249C138.209 20.6249 138.848 20.8692 139.344 21.3579C139.84 21.8427 140.088 22.5984 140.088 23.6249V29.4658H138.747V23.6249C138.747 22.981 138.571 22.5207 138.219 22.2442C137.866 21.9677 137.452 21.8295 136.974 21.8295C136.361 21.8295 135.885 22.0151 135.548 22.3863C135.211 22.7537 135.043 23.2196 135.043 23.784V29.4658H133.679V23.4885C133.679 22.9923 133.518 22.5927 133.196 22.2897C132.874 21.9829 132.459 21.8295 131.952 21.8295C131.603 21.8295 131.277 21.9223 130.974 22.1079C130.675 22.2935 130.433 22.551 130.247 22.8806C130.065 23.2064 129.974 23.5832 129.974 24.0113V29.4658H128.634ZM145.108 29.6704C144.555 29.6704 144.053 29.5662 143.602 29.3579C143.152 29.1457 142.794 28.8408 142.528 28.4431C142.263 28.0416 142.131 27.5567 142.131 26.9885C142.131 26.4885 142.229 26.0832 142.426 25.7726C142.623 25.4582 142.886 25.212 143.216 25.034C143.545 24.856 143.909 24.7234 144.307 24.6363C144.708 24.5454 145.112 24.4734 145.517 24.4204C146.047 24.3522 146.477 24.301 146.807 24.267C147.14 24.2291 147.383 24.1666 147.534 24.0795C147.689 23.9923 147.767 23.8408 147.767 23.6249V23.5795C147.767 23.0189 147.614 22.5832 147.307 22.2726C147.004 21.962 146.544 21.8067 145.926 21.8067C145.286 21.8067 144.784 21.9469 144.42 22.2272C144.057 22.5075 143.801 22.8067 143.653 23.1249L142.381 22.6704C142.608 22.1401 142.911 21.7272 143.29 21.4317C143.672 21.1325 144.089 20.9242 144.54 20.8067C144.994 20.6855 145.441 20.6249 145.881 20.6249C146.161 20.6249 146.483 20.659 146.847 20.7272C147.214 20.7916 147.568 20.926 147.909 21.1306C148.254 21.3351 148.54 21.6439 148.767 22.0567C148.994 22.4696 149.108 23.0226 149.108 23.7158V29.4658H147.767V28.284H147.699C147.608 28.4734 147.456 28.676 147.244 28.892C147.032 29.1079 146.75 29.2916 146.398 29.4431C146.045 29.5946 145.616 29.6704 145.108 29.6704ZM145.312 28.4658C145.843 28.4658 146.29 28.3617 146.653 28.1533C147.021 27.945 147.297 27.676 147.483 27.3465C147.672 27.017 147.767 26.6704 147.767 26.3067V25.0795C147.71 25.1476 147.585 25.2101 147.392 25.267C147.203 25.32 146.983 25.3673 146.733 25.409C146.487 25.4469 146.246 25.481 146.011 25.5113C145.78 25.5378 145.593 25.5605 145.449 25.5795C145.1 25.6249 144.775 25.6988 144.472 25.801C144.172 25.8995 143.93 26.0492 143.744 26.2499C143.563 26.4469 143.472 26.7158 143.472 27.0567C143.472 27.5226 143.644 27.8749 143.989 28.1135C144.337 28.3484 144.778 28.4658 145.312 28.4658ZM151.555 29.4658V20.7385H152.851V22.0567H152.942C153.101 21.6249 153.389 21.2745 153.805 21.0056C154.222 20.7367 154.692 20.6022 155.214 20.6022C155.313 20.6022 155.436 20.6041 155.584 20.6079C155.732 20.6117 155.843 20.6173 155.919 20.6249V21.9885C155.874 21.9772 155.769 21.9601 155.607 21.9374C155.447 21.9109 155.279 21.8976 155.101 21.8976C154.677 21.8976 154.298 21.9867 153.964 22.1647C153.635 22.3389 153.374 22.5814 153.18 22.892C152.991 23.1988 152.896 23.5492 152.896 23.9431V29.4658H151.555ZM158.638 32.7385C158.411 32.7385 158.208 32.7196 158.03 32.6817C157.852 32.6476 157.729 32.6135 157.661 32.5795L158.001 31.3976C158.327 31.481 158.615 31.5113 158.865 31.4885C159.115 31.4658 159.337 31.3541 159.53 31.1533C159.727 30.9564 159.907 30.6363 160.07 30.1931L160.32 29.5113L157.092 20.7385H158.547L160.956 27.6931H161.047L163.456 20.7385H164.911L161.206 30.7385C161.039 31.1893 160.833 31.5624 160.587 31.8579C160.34 32.1571 160.054 32.3787 159.729 32.5226C159.407 32.6666 159.043 32.7385 158.638 32.7385Z" fill="#CDCDCD"/>
<rect width="232.003" height="46" transform="translate(0 61.9658)" fill="#091931"/>
<mask id="mask0_47_6" style="mask-type:alpha" maskUnits="userSpaceOnUse" x="56" y="69" width="30" height="31">
<rect x="56" y="69.9658" width="30" height="30" fill="#D9D9D9"/>
</mask>
<g mask="url(#mask0_47_6)">
<path d="M60.6265 97.1682C59.9558 97.1682 59.3816 96.9294 58.904 96.4517C58.4263 95.9741 58.1875 95.3999 58.1875 94.7292V77.656C58.1875 76.9853 58.4263 76.4111 58.904 75.9334C59.3816 75.4558 59.9558 75.217 60.6265 75.217H71.5107L69.0716 77.656H60.6265V94.7292H77.6997V86.2535L80.1387 83.8145V94.7292C80.1387 95.3999 79.8999 95.9741 79.4223 96.4517C78.9446 96.9294 78.3704 97.1682 77.6997 97.1682H60.6265ZM74.2546 75.9182L75.9924 77.6255L67.9436 85.6743V87.4121H69.6509L77.7302 79.3328L79.468 81.0401L71.3887 89.1194C71.1651 89.343 70.906 89.5208 70.6113 89.6529C70.3166 89.7851 70.0066 89.8511 69.6814 89.8511H66.7241C66.3786 89.8511 66.0889 89.7342 65.8552 89.5005C65.6214 89.2668 65.5046 88.9771 65.5046 88.6316V85.6743C65.5046 85.3491 65.5655 85.0391 65.6875 84.7444C65.8095 84.4497 65.9822 84.1905 66.2058 83.967L74.2546 75.9182ZM79.468 81.0401L74.2546 75.9182L77.3034 72.8694C77.7912 72.3816 78.3755 72.1377 79.0564 72.1377C79.7373 72.1377 80.3115 72.3816 80.779 72.8694L82.4863 74.6072C82.9538 75.0747 83.1875 75.6438 83.1875 76.3145C83.1875 76.9853 82.9538 77.5544 82.4863 78.0218L79.468 81.0401Z" fill="white"/>
</g>
<path d="M95.8864 90.9658H94.4091L98.6818 79.3295H100.136L104.409 90.9658H102.932L99.4545 81.1704H99.3636L95.8864 90.9658ZM96.4318 86.4204H102.386V87.6704H96.4318V86.4204ZM109.335 91.1476C108.608 91.1476 107.966 90.9639 107.409 90.5965C106.852 90.2253 106.417 89.7026 106.102 89.0283C105.788 88.3503 105.631 87.5492 105.631 86.6249C105.631 85.7082 105.788 84.9128 106.102 84.2385C106.417 83.5643 106.854 83.0435 107.415 82.676C107.975 82.3086 108.623 82.1249 109.358 82.1249C109.926 82.1249 110.375 82.2196 110.705 82.409C111.038 82.5946 111.292 82.8067 111.466 83.0454C111.644 83.2802 111.782 83.4734 111.881 83.6249H111.994V79.3295H113.335V90.9658H112.04V89.6249H111.881C111.782 89.784 111.642 89.9848 111.46 90.2272C111.278 90.4658 111.019 90.6798 110.682 90.8692C110.345 91.0548 109.896 91.1476 109.335 91.1476ZM109.517 89.9431C110.055 89.9431 110.509 89.8029 110.881 89.5226C111.252 89.2385 111.534 88.8465 111.727 88.3465C111.92 87.8427 112.017 87.2613 112.017 86.6022C112.017 85.9507 111.922 85.3806 111.733 84.892C111.544 84.3995 111.263 84.017 110.892 83.7442C110.521 83.4677 110.063 83.3295 109.517 83.3295C108.949 83.3295 108.475 83.4753 108.097 83.767C107.722 84.0548 107.439 84.4469 107.25 84.9431C107.064 85.4355 106.972 85.9885 106.972 86.6022C106.972 87.2234 107.066 87.7878 107.256 88.2954C107.449 88.7992 107.733 89.2007 108.108 89.4999C108.487 89.7954 108.956 89.9431 109.517 89.9431ZM119.273 91.1476C118.545 91.1476 117.903 90.9639 117.347 90.5965C116.79 90.2253 116.354 89.7026 116.04 89.0283C115.725 88.3503 115.568 87.5492 115.568 86.6249C115.568 85.7082 115.725 84.9128 116.04 84.2385C116.354 83.5643 116.792 83.0435 117.352 82.676C117.913 82.3086 118.561 82.1249 119.295 82.1249C119.864 82.1249 120.313 82.2196 120.642 82.409C120.975 82.5946 121.229 82.8067 121.403 83.0454C121.581 83.2802 121.72 83.4734 121.818 83.6249H121.932V79.3295H123.273V90.9658H121.977V89.6249H121.818C121.72 89.784 121.58 89.9848 121.398 90.2272C121.216 90.4658 120.956 90.6798 120.619 90.8692C120.282 91.0548 119.833 91.1476 119.273 91.1476ZM119.455 89.9431C119.992 89.9431 120.447 89.8029 120.818 89.5226C121.189 89.2385 121.472 88.8465 121.665 88.3465C121.858 87.8427 121.955 87.2613 121.955 86.6022C121.955 85.9507 121.86 85.3806 121.67 84.892C121.481 84.3995 121.201 84.017 120.83 83.7442C120.458 83.4677 120 83.3295 119.455 83.3295C118.886 83.3295 118.413 83.4753 118.034 83.767C117.659 84.0548 117.377 84.4469 117.188 84.9431C117.002 85.4355 116.909 85.9885 116.909 86.6022C116.909 87.2234 117.004 87.7878 117.193 88.2954C117.386 88.7992 117.67 89.2007 118.045 89.4999C118.424 89.7954 118.894 89.9431 119.455 89.9431ZM129.96 80.5795V79.3295H138.688V80.5795H135.028V90.9658H133.619V80.5795H129.96ZM142.061 91.1704C141.508 91.1704 141.006 91.0662 140.555 90.8579C140.105 90.6457 139.747 90.3408 139.482 89.9431C139.216 89.5416 139.084 89.0567 139.084 88.4885C139.084 87.9885 139.182 87.5832 139.379 87.2726C139.576 86.9582 139.839 86.712 140.169 86.534C140.499 86.356 140.862 86.2234 141.26 86.1363C141.661 86.0454 142.065 85.9734 142.47 85.9204C143 85.8522 143.43 85.801 143.76 85.767C144.093 85.7291 144.336 85.6666 144.487 85.5795C144.643 85.4923 144.72 85.3408 144.72 85.1249V85.0795C144.72 84.5189 144.567 84.0832 144.26 83.7726C143.957 83.462 143.497 83.3067 142.879 83.3067C142.239 83.3067 141.737 83.4469 141.374 83.7272C141.01 84.0075 140.754 84.3067 140.607 84.6249L139.334 84.1704C139.561 83.6401 139.864 83.2272 140.243 82.9317C140.625 82.6325 141.042 82.4242 141.493 82.3067C141.947 82.1855 142.394 82.1249 142.834 82.1249C143.114 82.1249 143.436 82.159 143.8 82.2272C144.167 82.2916 144.521 82.426 144.862 82.6306C145.207 82.8351 145.493 83.1439 145.72 83.5567C145.947 83.9696 146.061 84.5226 146.061 85.2158V90.9658H144.72V89.784H144.652C144.561 89.9734 144.41 90.176 144.197 90.392C143.985 90.6079 143.703 90.7916 143.351 90.9431C142.999 91.0946 142.569 91.1704 142.061 91.1704ZM142.266 89.9658C142.796 89.9658 143.243 89.8617 143.607 89.6533C143.974 89.445 144.25 89.176 144.436 88.8465C144.625 88.517 144.72 88.1704 144.72 87.8067V86.5795C144.663 86.6476 144.538 86.7101 144.345 86.767C144.156 86.82 143.936 86.8673 143.686 86.909C143.44 86.9469 143.199 86.981 142.964 87.0113C142.733 87.0378 142.546 87.0605 142.402 87.0795C142.054 87.1249 141.728 87.1988 141.425 87.301C141.125 87.3995 140.883 87.5492 140.697 87.7499C140.516 87.9469 140.425 88.2158 140.425 88.5567C140.425 89.0226 140.597 89.3749 140.942 89.6135C141.29 89.8484 141.732 89.9658 142.266 89.9658ZM154.69 84.1931L153.486 84.534C153.41 84.3332 153.298 84.1382 153.151 83.9488C153.007 83.7556 152.81 83.5965 152.56 83.4715C152.31 83.3465 151.99 83.284 151.599 83.284C151.065 83.284 150.62 83.4071 150.264 83.6533C149.912 83.8957 149.736 84.2045 149.736 84.5795C149.736 84.9128 149.857 85.176 150.099 85.3692C150.342 85.5624 150.721 85.7234 151.236 85.8522L152.531 86.1704C153.312 86.3598 153.893 86.6495 154.276 87.0397C154.658 87.426 154.849 87.9242 154.849 88.534C154.849 89.034 154.705 89.481 154.418 89.8749C154.134 90.2689 153.736 90.5795 153.224 90.8067C152.713 91.034 152.118 91.1476 151.44 91.1476C150.55 91.1476 149.813 90.9545 149.23 90.5681C148.647 90.1817 148.277 89.6173 148.122 88.8749L149.395 88.5567C149.516 89.0264 149.745 89.3787 150.082 89.6135C150.423 89.8484 150.868 89.9658 151.418 89.9658C152.043 89.9658 152.539 89.8332 152.906 89.5681C153.277 89.2992 153.463 88.9772 153.463 88.6022C153.463 88.2992 153.357 88.0454 153.145 87.8408C152.933 87.6325 152.607 87.4772 152.168 87.3749L150.713 87.034C149.914 86.8446 149.327 86.551 148.952 86.1533C148.58 85.7518 148.395 85.2499 148.395 84.6476C148.395 84.1552 148.533 83.7196 148.81 83.3408C149.09 82.962 149.471 82.6647 149.952 82.4488C150.437 82.2329 150.986 82.1249 151.599 82.1249C152.463 82.1249 153.141 82.3143 153.634 82.6931C154.13 83.0719 154.482 83.5719 154.69 84.1931ZM158.118 87.784L158.095 86.1249H158.368L162.186 82.2385H163.845L159.777 86.3522H159.663L158.118 87.784ZM156.868 90.9658V79.3295H158.209V90.9658H156.868ZM162.413 90.9658L159.004 86.6476L159.959 85.7158L164.118 90.9658H162.413Z" fill="white"/>
<path d="M78.9546 135.739L78.9546 156.193C78.954 156.795 78.7143 157.373 78.2882 157.799C77.8622 158.225 77.2844 158.465 76.6819 158.466L72.1365 158.466C71.5339 158.465 70.9562 158.225 70.5301 157.799C70.104 157.373 69.8644 156.795 69.8638 156.193L69.8638 135.739C69.8644 135.136 70.104 134.558 70.5301 134.132C70.9562 133.706 71.5339 133.466 72.1365 133.466L76.6819 133.466C77.2844 133.466 77.8622 133.706 78.2882 134.132C78.7143 134.558 78.954 135.136 78.9546 135.739ZM72.1365 156.193L76.6819 156.193L76.6819 135.739L72.1365 135.739L72.1365 156.193ZM72.1365 135.739L72.1365 156.193C72.1359 156.795 71.8962 157.373 71.4701 157.799C71.0441 158.225 70.4663 158.465 69.8638 158.466L65.3184 158.466C64.7158 158.465 64.1381 158.225 63.712 157.799C63.2859 157.373 63.0463 156.795 63.0456 156.193L63.0456 135.739C63.0462 135.136 63.2859 134.558 63.712 134.132C64.1381 133.706 64.7158 133.466 65.3184 133.466L69.8638 133.466C70.4663 133.466 71.0441 133.706 71.4701 134.132C71.8962 134.558 72.1359 135.136 72.1365 135.739ZM65.3184 156.193L69.8638 156.193L69.8638 135.739L65.3184 135.739L65.3184 156.193ZM65.3184 135.739L65.3184 156.193C65.3178 156.795 65.0781 157.373 64.652 157.799C64.2259 158.225 63.6482 158.465 63.0456 158.466L58.5002 158.466C57.8977 158.465 57.3199 158.225 56.8939 157.799C56.4678 157.373 56.2281 156.795 56.2275 156.193L56.2275 135.739C56.2281 135.136 56.4678 134.558 56.8939 134.132C57.3199 133.706 57.8977 133.466 58.5002 133.466L63.0456 133.466C63.6482 133.466 64.2259 133.706 64.652 134.132C65.0781 134.558 65.3177 135.136 65.3184 135.739ZM58.5002 156.193L63.0456 156.193L63.0456 135.739L58.5002 135.739L58.5002 156.193Z" fill="#CDCDCD"/>
<path d="M85.7727 135.739L85.7727 156.193C85.7721 156.796 85.5324 157.373 85.1064 157.799C84.6803 158.226 84.1026 158.465 83.5 158.466L78.9546 158.466C78.352 158.465 77.7743 158.226 77.3482 157.799C76.9221 157.373 76.6825 156.795 76.6819 156.193L76.6819 135.739C76.6825 135.136 76.9221 134.559 77.3482 134.132C77.7743 133.706 78.352 133.467 78.9546 133.466L83.5 133.466C84.1026 133.467 84.6803 133.706 85.1064 134.132C85.5324 134.559 85.7721 135.136 85.7727 135.739ZM78.9546 156.193L83.5 156.193L83.5 135.739L78.9546 135.739L78.9546 156.193Z" fill="#CDCDCD"/>
<path d="M95.4091 151.466V139.829H99.4773C100.288 139.829 100.956 139.97 101.483 140.25C102.009 140.526 102.402 140.9 102.659 141.369C102.917 141.835 103.045 142.352 103.045 142.92C103.045 143.42 102.956 143.833 102.778 144.159C102.604 144.485 102.373 144.742 102.085 144.932C101.801 145.121 101.492 145.261 101.159 145.352V145.466C101.515 145.489 101.873 145.614 102.233 145.841C102.593 146.068 102.894 146.394 103.136 146.818C103.379 147.242 103.5 147.761 103.5 148.375C103.5 148.958 103.367 149.483 103.102 149.949C102.837 150.415 102.419 150.784 101.847 151.057C101.275 151.329 100.53 151.466 99.6136 151.466H95.4091ZM96.8182 150.216H99.6136C100.534 150.216 101.188 150.038 101.574 149.682C101.964 149.322 102.159 148.886 102.159 148.375C102.159 147.981 102.059 147.617 101.858 147.284C101.657 146.947 101.371 146.678 101 146.477C100.629 146.273 100.189 146.17 99.6818 146.17H96.8182V150.216ZM96.8182 144.943H99.4318C99.8561 144.943 100.239 144.86 100.58 144.693C100.924 144.526 101.197 144.292 101.398 143.989C101.602 143.686 101.705 143.329 101.705 142.92C101.705 142.409 101.527 141.975 101.17 141.619C100.814 141.259 100.25 141.079 99.4773 141.079H96.8182V144.943ZM109.179 151.648C108.391 151.648 107.7 151.46 107.105 151.085C106.514 150.71 106.052 150.186 105.719 149.511C105.389 148.837 105.224 148.049 105.224 147.148C105.224 146.239 105.389 145.445 105.719 144.767C106.052 144.089 106.514 143.562 107.105 143.187C107.7 142.812 108.391 142.625 109.179 142.625C109.967 142.625 110.656 142.812 111.247 143.187C111.842 143.562 112.304 144.089 112.634 144.767C112.967 145.445 113.134 146.239 113.134 147.148C113.134 148.049 112.967 148.837 112.634 149.511C112.304 150.186 111.842 150.71 111.247 151.085C110.656 151.46 109.967 151.648 109.179 151.648ZM109.179 150.443C109.777 150.443 110.27 150.29 110.656 149.983C111.043 149.676 111.329 149.273 111.514 148.773C111.7 148.273 111.793 147.731 111.793 147.148C111.793 146.564 111.7 146.021 111.514 145.517C111.329 145.013 111.043 144.606 110.656 144.295C110.27 143.985 109.777 143.829 109.179 143.829C108.58 143.829 108.088 143.985 107.702 144.295C107.315 144.606 107.029 145.013 106.844 145.517C106.658 146.021 106.565 146.564 106.565 147.148C106.565 147.731 106.658 148.273 106.844 148.773C107.029 149.273 107.315 149.676 107.702 149.983C108.088 150.29 108.58 150.443 109.179 150.443ZM117.749 151.67C117.196 151.67 116.694 151.566 116.243 151.358C115.792 151.146 115.434 150.841 115.169 150.443C114.904 150.042 114.771 149.557 114.771 148.989C114.771 148.489 114.87 148.083 115.067 147.773C115.264 147.458 115.527 147.212 115.857 147.034C116.186 146.856 116.55 146.723 116.947 146.636C117.349 146.545 117.752 146.473 118.158 146.42C118.688 146.352 119.118 146.301 119.447 146.267C119.781 146.229 120.023 146.167 120.175 146.079C120.33 145.992 120.408 145.841 120.408 145.625V145.579C120.408 145.019 120.254 144.583 119.947 144.273C119.644 143.962 119.184 143.807 118.567 143.807C117.927 143.807 117.425 143.947 117.061 144.227C116.697 144.507 116.442 144.807 116.294 145.125L115.021 144.67C115.249 144.14 115.552 143.727 115.93 143.432C116.313 143.132 116.73 142.924 117.18 142.807C117.635 142.686 118.082 142.625 118.521 142.625C118.802 142.625 119.124 142.659 119.487 142.727C119.855 142.792 120.209 142.926 120.55 143.131C120.894 143.335 121.18 143.644 121.408 144.057C121.635 144.47 121.749 145.023 121.749 145.716V151.466H120.408V150.284H120.339C120.249 150.473 120.097 150.676 119.885 150.892C119.673 151.108 119.391 151.292 119.038 151.443C118.686 151.595 118.256 151.67 117.749 151.67ZM117.953 150.466C118.483 150.466 118.93 150.362 119.294 150.153C119.661 149.945 119.938 149.676 120.124 149.347C120.313 149.017 120.408 148.67 120.408 148.307V147.079C120.351 147.148 120.226 147.21 120.033 147.267C119.843 147.32 119.624 147.367 119.374 147.409C119.127 147.447 118.887 147.481 118.652 147.511C118.421 147.538 118.233 147.561 118.089 147.579C117.741 147.625 117.415 147.699 117.112 147.801C116.813 147.9 116.571 148.049 116.385 148.25C116.203 148.447 116.112 148.716 116.112 149.057C116.112 149.523 116.285 149.875 116.629 150.114C116.978 150.348 117.419 150.466 117.953 150.466ZM124.196 151.466V142.739H125.491V144.057H125.582C125.741 143.625 126.029 143.275 126.446 143.006C126.863 142.737 127.332 142.602 127.855 142.602C127.954 142.602 128.077 142.604 128.224 142.608C128.372 142.612 128.484 142.617 128.56 142.625V143.989C128.514 143.977 128.41 143.96 128.247 143.937C128.088 143.911 127.92 143.898 127.741 143.898C127.317 143.898 126.938 143.987 126.605 144.165C126.276 144.339 126.014 144.581 125.821 144.892C125.632 145.199 125.537 145.549 125.537 145.943V151.466H124.196ZM133.179 151.648C132.452 151.648 131.81 151.464 131.253 151.097C130.696 150.725 130.26 150.203 129.946 149.528C129.632 148.85 129.474 148.049 129.474 147.125C129.474 146.208 129.632 145.413 129.946 144.739C130.26 144.064 130.698 143.543 131.259 143.176C131.819 142.809 132.467 142.625 133.202 142.625C133.77 142.625 134.219 142.72 134.548 142.909C134.882 143.095 135.135 143.307 135.31 143.545C135.488 143.78 135.626 143.973 135.724 144.125H135.838V139.829H137.179V151.466H135.884V150.125H135.724C135.626 150.284 135.486 150.485 135.304 150.727C135.122 150.966 134.863 151.18 134.526 151.369C134.188 151.555 133.74 151.648 133.179 151.648ZM133.361 150.443C133.899 150.443 134.353 150.303 134.724 150.023C135.096 149.739 135.378 149.347 135.571 148.847C135.764 148.343 135.861 147.761 135.861 147.102C135.861 146.451 135.766 145.881 135.577 145.392C135.387 144.9 135.107 144.517 134.736 144.244C134.365 143.968 133.906 143.829 133.361 143.829C132.793 143.829 132.319 143.975 131.94 144.267C131.565 144.555 131.283 144.947 131.094 145.443C130.908 145.936 130.815 146.489 130.815 147.102C130.815 147.723 130.91 148.288 131.099 148.795C131.293 149.299 131.577 149.701 131.952 150C132.33 150.295 132.8 150.443 133.361 150.443Z" fill="#CDCDCD"/>
<mask id="mask1_47_6" style="mask-type:alpha" maskUnits="userSpaceOnUse" x="56" y="191" width="30" height="31">
<rect x="56" y="191.966" width="30" height="30" fill="#D9D9D9"/>
</mask>
<g mask="url(#mask1_47_6)">
<path d="M71 214.466C69.8333 214.466 68.7188 214.648 67.6563 215.013C66.5938 215.377 65.625 215.924 64.75 216.653V216.966H77.25V216.653C76.375 215.924 75.4062 215.377 74.3438 215.013C73.2812 214.648 72.1667 214.466 71 214.466ZM62.25 215.528C63.375 214.424 64.6823 213.554 66.1719 212.919C67.6615 212.284 69.2708 211.966 71 211.966C72.7292 211.966 74.3385 212.284 75.8281 212.919C77.3177 213.554 78.625 214.424 79.75 215.528V199.466H62.25V215.528ZM71 209.466C69.7917 209.466 68.7604 209.039 67.9062 208.185C67.0521 207.33 66.625 206.299 66.625 205.091C66.625 203.882 67.0521 202.851 67.9062 201.997C68.7604 201.143 69.7917 200.716 71 200.716C72.2083 200.716 73.2396 201.143 74.0938 201.997C74.9479 202.851 75.375 203.882 75.375 205.091C75.375 206.299 74.9479 207.33 74.0938 208.185C73.2396 209.039 72.2083 209.466 71 209.466ZM71 206.966C71.5208 206.966 71.9635 206.784 72.3281 206.419C72.6927 206.054 72.875 205.612 72.875 205.091C72.875 204.57 72.6927 204.127 72.3281 203.763C71.9635 203.398 71.5208 203.216 71 203.216C70.4792 203.216 70.0365 203.398 69.6719 203.763C69.3073 204.127 69.125 204.57 69.125 205.091C69.125 205.612 69.3073 206.054 69.6719 206.419C70.0365 206.784 70.4792 206.966 71 206.966ZM62.25 219.466C61.5625 219.466 60.974 219.221 60.4844 218.731C59.9948 218.242 59.75 217.653 59.75 216.966V199.466C59.75 198.778 59.9948 198.19 60.4844 197.7C60.974 197.211 61.5625 196.966 62.25 196.966H63.5V194.466H66V196.966H76V194.466H78.5V196.966H79.75C80.4375 196.966 81.026 197.211 81.5156 197.7C82.0052 198.19 82.25 198.778 82.25 199.466V216.966C82.25 217.653 82.0052 218.242 81.5156 218.731C81.026 219.221 80.4375 219.466 79.75 219.466H62.25Z" fill="#CDCDCD"/>
</g>
<path d="M104.773 204.466H103.364C103.28 204.061 103.134 203.704 102.926 203.398C102.722 203.091 102.472 202.833 102.176 202.625C101.884 202.413 101.561 202.254 101.205 202.148C100.848 202.042 100.477 201.989 100.091 201.989C99.3864 201.989 98.7481 202.167 98.1761 202.523C97.608 202.879 97.1553 203.403 96.8182 204.097C96.4848 204.79 96.3182 205.64 96.3182 206.648C96.3182 207.655 96.4848 208.506 96.8182 209.199C97.1553 209.892 97.608 210.417 98.1761 210.773C98.7481 211.129 99.3864 211.307 100.091 211.307C100.477 211.307 100.848 211.254 101.205 211.148C101.561 211.042 101.884 210.884 102.176 210.676C102.472 210.464 102.722 210.204 102.926 209.898C103.134 209.587 103.28 209.231 103.364 208.829H104.773C104.667 209.424 104.473 209.956 104.193 210.426C103.913 210.896 103.564 211.295 103.148 211.625C102.731 211.951 102.263 212.199 101.744 212.369C101.229 212.54 100.678 212.625 100.091 212.625C99.0985 212.625 98.2159 212.382 97.4432 211.898C96.6705 211.413 96.0625 210.723 95.6193 209.829C95.1761 208.936 94.9545 207.875 94.9545 206.648C94.9545 205.42 95.1761 204.36 95.6193 203.466C96.0625 202.572 96.6705 201.882 97.4432 201.398C98.2159 200.913 99.0985 200.67 100.091 200.67C100.678 200.67 101.229 200.756 101.744 200.926C102.263 201.097 102.731 201.347 103.148 201.676C103.564 202.002 103.913 202.4 104.193 202.869C104.473 203.335 104.667 203.867 104.773 204.466ZM110.413 212.648C109.625 212.648 108.934 212.46 108.339 212.085C107.749 211.71 107.286 211.186 106.953 210.511C106.624 209.837 106.459 209.049 106.459 208.148C106.459 207.239 106.624 206.445 106.953 205.767C107.286 205.089 107.749 204.562 108.339 204.187C108.934 203.812 109.625 203.625 110.413 203.625C111.201 203.625 111.891 203.812 112.482 204.187C113.076 204.562 113.538 205.089 113.868 205.767C114.201 206.445 114.368 207.239 114.368 208.148C114.368 209.049 114.201 209.837 113.868 210.511C113.538 211.186 113.076 211.71 112.482 212.085C111.891 212.46 111.201 212.648 110.413 212.648ZM110.413 211.443C111.012 211.443 111.504 211.29 111.891 210.983C112.277 210.676 112.563 210.273 112.749 209.773C112.934 209.273 113.027 208.731 113.027 208.148C113.027 207.564 112.934 207.021 112.749 206.517C112.563 206.013 112.277 205.606 111.891 205.295C111.504 204.985 111.012 204.829 110.413 204.829C109.815 204.829 109.322 204.985 108.936 205.295C108.55 205.606 108.264 206.013 108.078 206.517C107.893 207.021 107.8 207.564 107.8 208.148C107.8 208.731 107.893 209.273 108.078 209.773C108.264 210.273 108.55 210.676 108.936 210.983C109.322 211.29 109.815 211.443 110.413 211.443ZM117.756 207.216V212.466H116.415V203.739H117.71V205.102H117.824C118.028 204.659 118.339 204.303 118.756 204.034C119.172 203.761 119.71 203.625 120.369 203.625C120.96 203.625 121.477 203.746 121.92 203.989C122.364 204.227 122.708 204.591 122.955 205.079C123.201 205.564 123.324 206.178 123.324 206.92V212.466H121.983V207.011C121.983 206.326 121.805 205.792 121.449 205.409C121.093 205.023 120.604 204.829 119.983 204.829C119.555 204.829 119.172 204.922 118.835 205.108C118.502 205.293 118.239 205.564 118.045 205.92C117.852 206.276 117.756 206.708 117.756 207.216ZM129.57 203.739V204.875H125.047V203.739H129.57ZM126.365 201.648H127.706V209.966C127.706 210.345 127.761 210.629 127.871 210.818C127.984 211.004 128.128 211.129 128.303 211.193C128.481 211.254 128.668 211.284 128.865 211.284C129.013 211.284 129.134 211.276 129.229 211.261C129.323 211.242 129.399 211.227 129.456 211.216L129.729 212.42C129.638 212.454 129.511 212.489 129.348 212.523C129.185 212.561 128.979 212.579 128.729 212.579C128.35 212.579 127.979 212.498 127.615 212.335C127.255 212.172 126.956 211.924 126.717 211.591C126.482 211.257 126.365 210.837 126.365 210.329V201.648ZM134.155 212.67C133.602 212.67 133.1 212.566 132.649 212.358C132.198 212.146 131.84 211.841 131.575 211.443C131.31 211.042 131.178 210.557 131.178 209.989C131.178 209.489 131.276 209.083 131.473 208.773C131.67 208.458 131.933 208.212 132.263 208.034C132.592 207.856 132.956 207.723 133.354 207.636C133.755 207.545 134.159 207.473 134.564 207.42C135.094 207.352 135.524 207.301 135.854 207.267C136.187 207.229 136.429 207.167 136.581 207.079C136.736 206.992 136.814 206.841 136.814 206.625V206.579C136.814 206.019 136.661 205.583 136.354 205.273C136.051 204.962 135.59 204.807 134.973 204.807C134.333 204.807 133.831 204.947 133.467 205.227C133.104 205.507 132.848 205.807 132.7 206.125L131.428 205.67C131.655 205.14 131.958 204.727 132.337 204.432C132.719 204.132 133.136 203.924 133.587 203.807C134.041 203.686 134.488 203.625 134.928 203.625C135.208 203.625 135.53 203.659 135.893 203.727C136.261 203.792 136.615 203.926 136.956 204.131C137.301 204.335 137.587 204.644 137.814 205.057C138.041 205.47 138.155 206.023 138.155 206.716V212.466H136.814V211.284H136.746C136.655 211.473 136.503 211.676 136.291 211.892C136.079 212.108 135.797 212.292 135.445 212.443C135.092 212.595 134.662 212.67 134.155 212.67ZM134.359 211.466C134.89 211.466 135.337 211.362 135.7 211.153C136.068 210.945 136.344 210.676 136.53 210.347C136.719 210.017 136.814 209.67 136.814 209.307V208.079C136.757 208.148 136.632 208.21 136.439 208.267C136.25 208.32 136.03 208.367 135.78 208.409C135.534 208.447 135.293 208.481 135.058 208.511C134.827 208.538 134.64 208.561 134.496 208.579C134.147 208.625 133.821 208.699 133.518 208.801C133.219 208.9 132.977 209.049 132.791 209.25C132.609 209.447 132.518 209.716 132.518 210.057C132.518 210.523 132.691 210.875 133.036 211.114C133.384 211.348 133.825 211.466 134.359 211.466ZM144.148 212.648C143.33 212.648 142.625 212.454 142.034 212.068C141.443 211.682 140.989 211.15 140.67 210.472C140.352 209.793 140.193 209.019 140.193 208.148C140.193 207.261 140.356 206.479 140.682 205.801C141.011 205.119 141.47 204.587 142.057 204.204C142.648 203.818 143.337 203.625 144.125 203.625C144.739 203.625 145.292 203.739 145.784 203.966C146.277 204.193 146.68 204.511 146.994 204.92C147.309 205.329 147.504 205.807 147.58 206.352H146.239C146.136 205.954 145.909 205.602 145.557 205.295C145.208 204.985 144.739 204.829 144.148 204.829C143.625 204.829 143.167 204.966 142.773 205.239C142.383 205.507 142.078 205.888 141.858 206.381C141.642 206.869 141.534 207.443 141.534 208.102C141.534 208.776 141.64 209.364 141.852 209.864C142.068 210.364 142.371 210.752 142.761 211.028C143.155 211.305 143.617 211.443 144.148 211.443C144.496 211.443 144.812 211.382 145.097 211.261C145.381 211.14 145.621 210.966 145.818 210.739C146.015 210.511 146.155 210.239 146.239 209.92H147.58C147.504 210.436 147.316 210.9 147.017 211.312C146.722 211.722 146.33 212.047 145.841 212.29C145.356 212.528 144.792 212.648 144.148 212.648ZM153.335 203.739V204.875H148.812V203.739H153.335ZM150.131 201.648H151.472V209.966C151.472 210.345 151.527 210.629 151.636 210.818C151.75 211.004 151.894 211.129 152.068 211.193C152.246 211.254 152.434 211.284 152.631 211.284C152.778 211.284 152.9 211.276 152.994 211.261C153.089 211.242 153.165 211.227 153.222 211.216L153.494 212.42C153.403 212.454 153.277 212.489 153.114 212.523C152.951 212.561 152.744 212.579 152.494 212.579C152.116 212.579 151.744 212.498 151.381 212.335C151.021 212.172 150.722 211.924 150.483 211.591C150.248 211.257 150.131 210.837 150.131 210.329V201.648ZM161.378 205.693L160.173 206.034C160.098 205.833 159.986 205.638 159.838 205.449C159.694 205.256 159.497 205.097 159.247 204.972C158.997 204.847 158.677 204.784 158.287 204.784C157.753 204.784 157.308 204.907 156.952 205.153C156.599 205.396 156.423 205.704 156.423 206.079C156.423 206.413 156.545 206.676 156.787 206.869C157.029 207.062 157.408 207.223 157.923 207.352L159.219 207.67C159.999 207.86 160.58 208.15 160.963 208.54C161.346 208.926 161.537 209.424 161.537 210.034C161.537 210.534 161.393 210.981 161.105 211.375C160.821 211.769 160.423 212.079 159.912 212.307C159.401 212.534 158.806 212.648 158.128 212.648C157.238 212.648 156.501 212.454 155.918 212.068C155.334 211.682 154.965 211.117 154.81 210.375L156.082 210.057C156.204 210.526 156.433 210.879 156.77 211.114C157.111 211.348 157.556 211.466 158.105 211.466C158.73 211.466 159.226 211.333 159.594 211.068C159.965 210.799 160.151 210.477 160.151 210.102C160.151 209.799 160.045 209.545 159.832 209.341C159.62 209.132 159.295 208.977 158.855 208.875L157.401 208.534C156.601 208.345 156.014 208.051 155.639 207.653C155.268 207.252 155.082 206.75 155.082 206.148C155.082 205.655 155.221 205.22 155.497 204.841C155.777 204.462 156.158 204.165 156.639 203.949C157.124 203.733 157.673 203.625 158.287 203.625C159.151 203.625 159.829 203.814 160.321 204.193C160.817 204.572 161.17 205.072 161.378 205.693Z" fill="#CDCDCD"/>
</svg>
