<?xml version="1.0" encoding="UTF-8" standalone="no"?>
<!DOCTYPE svg PUBLIC "-//W3C//DTD SVG 1.1//EN" "http://www.w3.org/Graphics/SVG/1.1/DTD/svg11.dtd">
<svg width="100%" height="100%" viewBox="0 0 21 15" version="1.1" xmlns="http://www.w3.org/2000/svg" xmlns:xlink="http://www.w3.org/1999/xlink" xml:space="preserve" xmlns:serif="http://www.serif.com/" style="fill-rule:evenodd;clip-rule:evenodd;stroke-linejoin:round;stroke-miterlimit:2;">
    <g>
        <clipPath id="_clip1">
            <rect x="0.667" y="0.245" width="20" height="14.51"/>
        </clipPath>
        <g clip-path="url(#_clip1)">
            <g transform="matrix(0.991674,0,0,1,-0.181842,3.30832)">
                <path d="M19.76,7.917L1.951,7.917C1.661,7.917 1.382,7.801 1.176,7.594C0.971,7.387 0.855,7.106 0.855,6.813C0.855,6.521 0.971,6.24 1.176,6.033C1.382,5.826 1.661,5.709 1.951,5.709L19.76,5.709C20.05,5.709 20.329,5.826 20.535,6.033C20.74,6.24 20.856,6.521 20.856,6.813C20.856,7.106 20.74,7.387 20.535,7.594C20.329,7.801 20.05,7.917 19.76,7.917Z" style="fill:rgb(255,168,0);fill-rule:nonzero;"/>
                <path d="M19.76,2.674L1.951,2.674C1.661,2.674 1.382,2.558 1.176,2.351C0.971,2.144 0.855,1.863 0.855,1.57C0.855,1.277 0.971,0.997 1.176,0.789C1.382,0.582 1.661,0.466 1.951,0.466L19.76,0.466C20.05,0.466 20.329,0.582 20.535,0.789C20.74,0.997 20.856,1.277 20.856,1.57C20.856,1.863 20.74,2.144 20.535,2.351C20.329,2.558 20.05,2.674 19.76,2.674Z" style="fill:rgb(255,168,0);fill-rule:nonzero;"/>
            </g>
        </g>
    </g>
</svg>
